<svg width="10" height="16" viewBox="0 0 10 16" fill="none" xmlns="http://www.w3.org/2000/svg">
<path d="M9.16685 7.4147L2.49166 0.739632C2.33727 0.585121 2.13118 0.5 1.91142 0.5C1.69167 0.5 1.48557 0.585121 1.33118 0.739632L0.839602 1.23109C0.519726 1.55133 0.519726 2.07182 0.839602 2.39157L6.44492 7.99689L0.833382 13.6084C0.678993 13.7629 0.59375 13.9689 0.59375 14.1885C0.59375 14.4084 0.678993 14.6144 0.833382 14.769L1.32496 15.2604C1.47947 15.4149 1.68545 15.5 1.9052 15.5C2.12496 15.5 2.33105 15.4149 2.48544 15.2604L9.16685 8.5792C9.32161 8.4242 9.40661 8.21725 9.40612 7.99726C9.40661 7.7764 9.32161 7.56958 9.16685 7.4147Z" fill="white"/>
</svg>
