<svg width="80" height="80" viewBox="0 0 80 80" fill="none" xmlns="http://www.w3.org/2000/svg">
<path d="M19 43.3333C26.0877 43.3333 31.8334 37.5876 31.8334 30.5C31.8334 23.4123 26.0877 17.6666 19 17.6666C11.9124 17.6666 6.16669 23.4123 6.16669 30.5C6.16669 37.5876 11.9124 43.3333 19 43.3333Z" fill="#FFD44C"/>
<path d="M23.0833 42.6698C21.1537 43.3156 19.0982 43.4933 17.0864 43.1883C15.0746 42.8833 13.1642 42.1043 11.5127 40.9155C9.86131 39.7267 8.51621 38.1623 7.58844 36.3514C6.66067 34.5404 6.17682 32.5348 6.17682 30.5C6.17682 28.4652 6.66067 26.4595 7.58844 24.6486C8.51621 22.8376 9.86131 21.2732 11.5127 20.0844C13.1642 18.8957 15.0746 18.1166 17.0864 17.8116C19.0982 17.5066 21.1537 17.6843 23.0833 18.3302C20.534 19.1866 18.3179 20.822 16.748 23.0056C15.178 25.1891 14.3335 27.8106 14.3335 30.5C14.3335 33.1893 15.178 35.8108 16.748 37.9944C18.3179 40.1779 20.534 41.8133 23.0833 42.6698Z" fill="#FFBE19"/>
<path d="M70.3334 31.6666L51.6667 50.3333L43.5 42.1666L19 66.6666L7.33335 55H6.16669V71.3333H73.8334V31.6666H70.3334Z" fill="#B4D7F0"/>
<path d="M7.33335 55L14.3334 62V71.3333H6.16669V55H7.33335Z" fill="#7DBBE3"/>
<path d="M23.0758 62.5797L43.4894 42.1661L47.5721 46.2488L27.1585 66.6624L23.0758 62.5797Z" fill="#7DBBE3"/>
<path d="M73.8333 31.6666V36.3333L59.8333 50.3333L55.75 46.25L70.3333 31.6666H73.8333Z" fill="#7DBBE3"/>
<path d="M47 16.5C46.9998 19.5082 45.9431 22.4209 44.0145 24.7296C42.0859 27.0383 39.4077 28.5964 36.4475 29.132C36.1394 25.2158 34.5232 21.5169 31.8588 18.6301C29.1945 15.7433 25.6368 13.8364 21.7578 13.2158C22.4835 10.4785 24.0939 8.05784 26.3382 6.33076C28.5825 4.60368 31.3348 3.66704 34.1667 3.66663V15.3333H46.9475C46.9825 15.7168 47 16.1057 47 16.5Z" fill="#D94736"/>
<path d="M42.5361 26.2285C40.8031 27.724 38.7004 28.7267 36.4475 29.132C36.1394 25.2158 34.5232 21.5169 31.8588 18.6301C29.1945 15.7433 25.6368 13.8364 21.7578 13.2158C22.4835 10.4785 24.0939 8.05784 26.3382 6.33076C28.5825 4.60368 31.3348 3.66704 34.1667 3.66663V5.47058C31.2808 7.18929 29.1823 9.96935 28.3203 13.2158C30.3755 13.5413 32.3556 14.2328 34.1667 15.2575V15.3333H34.298C36.3304 16.5056 38.1068 18.074 39.5219 19.9455C40.937 21.817 41.962 23.9535 42.5361 26.2285Z" fill="#C6210B"/>
<path d="M46.9475 15.3333H34.1667V3.66663C37.3683 3.66686 40.4543 4.86367 42.8189 7.02216C45.1835 9.18064 46.6561 12.1449 46.9475 15.3333Z" fill="#FFD44C"/>
<path d="M40 5.06664V15.3333H34.1667V3.66664C36.1947 3.66353 38.1943 4.14343 40 5.06664Z" fill="#FFBE19"/>
<path d="M15.5 36.3334H17.8333V38.6667H20.1666V36.3334H21.3333C21.9519 36.3326 22.545 36.0866 22.9824 35.6491C23.4198 35.2117 23.6659 34.6187 23.6666 34V31.6667C23.6659 31.0481 23.4198 30.455 22.9824 30.0176C22.545 29.5802 21.9519 29.3341 21.3333 29.3334H16.6666V27H21.3333V28.1667H23.6666V25.8334C23.6666 25.524 23.5437 25.2272 23.3249 25.0084C23.1061 24.7896 22.8094 24.6667 22.5 24.6667H20.1666V22.3334H17.8333V24.6667H16.6666C16.048 24.6674 15.455 24.9135 15.0175 25.3509C14.5801 25.7884 14.334 26.3814 14.3333 27V29.3334C14.334 29.952 14.5801 30.5451 15.0175 30.9825C15.455 31.4199 16.048 31.666 16.6666 31.6667H21.3333V34H16.6666V32.8334H14.3333V35.1667C14.3333 35.4761 14.4562 35.7729 14.675 35.9917C14.8938 36.2105 15.1906 36.3334 15.5 36.3334Z" fill="#D94736"/>
<path d="M9.66669 29.3334H12V31.6667H9.66669V29.3334Z" fill="#D94736"/>
<path d="M26 29.3334H28.3333V31.6667H26V29.3334Z" fill="#D94736"/>
<path d="M73.8333 18.8334H65.6667V21.1667H71.0167L51.6667 40.5169L44.325 33.1751C44.2166 33.0667 44.088 32.9808 43.9465 32.9221C43.8049 32.8635 43.6532 32.8333 43.5 32.8333C43.3468 32.8333 43.1951 32.8635 43.0535 32.9221C42.912 32.9808 42.7834 33.0667 42.675 33.1751L19 56.8502L9.32498 47.1751C9.21664 47.0667 9.08802 46.9808 8.94647 46.9222C8.80492 46.8635 8.65321 46.8334 8.5 46.8334H5V49.1667H8.01685L18.175 59.325C18.2834 59.4334 18.412 59.5193 18.5535 59.5779C18.6951 59.6366 18.8468 59.6668 19 59.6668C19.1532 59.6668 19.3049 59.6366 19.4465 59.5779C19.588 59.5193 19.7166 59.4334 19.825 59.325L43.5 35.6499L50.8417 42.9917C50.95 43.1 51.0786 43.186 51.2202 43.2446C51.3617 43.3032 51.5135 43.3334 51.6667 43.3334C51.8199 43.3334 51.9716 43.3032 52.1131 43.2446C52.2547 43.186 52.3833 43.1 52.4916 42.9917L72.6667 22.8167V28.1667H75V20C75 19.6906 74.8771 19.3939 74.6583 19.1751C74.4395 18.9563 74.1428 18.8334 73.8333 18.8334Z" fill="#D94736"/>
<path d="M51.6667 2.5H56.3334V4.83333H51.6667V2.5Z" fill="#7DBBE3"/>
<path d="M58.6667 2.5H70.3334V4.83333H58.6667V2.5Z" fill="#7DBBE3"/>
<path d="M51.6667 7.16663H56.3334V9.49996H51.6667V7.16663Z" fill="#7DBBE3"/>
<path d="M58.6667 7.16663H70.3334V9.49996H58.6667V7.16663Z" fill="#7DBBE3"/>
<path d="M51.6667 11.8334H56.3334V14.1667H51.6667V11.8334Z" fill="#7DBBE3"/>
<path d="M58.6667 11.8334H70.3334V14.1667H58.6667V11.8334Z" fill="#7DBBE3"/>
<path d="M51.6667 58.5H56.3334V60.8333H51.6667V58.5Z" fill="#7DBBE3"/>
<path d="M58.6667 58.5H70.3334V60.8333H58.6667V58.5Z" fill="#7DBBE3"/>
<path d="M51.6667 63.1666H56.3334V65.5H51.6667V63.1666Z" fill="#7DBBE3"/>
<path d="M58.6667 63.1666H70.3334V65.5H58.6667V63.1666Z" fill="#7DBBE3"/>
</svg>
