<svg width="101" height="100" viewBox="0 0 101 100" fill="none" xmlns="http://www.w3.org/2000/svg">
<g clip-path="url(#clip0_258_2848)">
<path d="M98.0735 31.9332C94.8383 28.6979 89.5928 28.6979 86.3575 31.9332L55.8666 62.424L50.8676 57.425L39.1516 69.141L47.8313 77.8207C52.269 82.2584 59.4639 82.2584 63.9018 77.8207L98.0735 43.649C101.309 40.4139 101.309 35.1684 98.0735 31.9332Z" fill="url(#paint0_linear_258_2848)"/>
<path d="M24.806 51.7682L55.297 21.2773C58.5324 18.042 63.7777 18.042 67.013 21.2773C70.2484 24.5127 70.2484 29.758 67.013 32.9934L32.8414 67.165C28.4037 71.6027 21.2087 71.6027 16.7709 67.165L2.92651 53.3207C-0.308838 50.0854 -0.308838 44.84 2.92651 41.6047C6.16187 38.3695 11.4072 38.3695 14.6425 41.6047L24.806 51.7682Z" fill="url(#paint1_linear_258_2848)"/>
</g>
<defs>
<linearGradient id="paint0_linear_258_2848" x1="39.1516" y1="55.3279" x2="100.626" y2="55.3279" gradientUnits="userSpaceOnUse">
<stop stop-color="#6396E3"/>
<stop offset="1" stop-color="#0047B1"/>
</linearGradient>
<linearGradient id="paint1_linear_258_2848" x1="0.5" y1="44.6721" x2="69.5817" y2="44.6721" gradientUnits="userSpaceOnUse">
<stop stop-color="#6396E3"/>
<stop offset="1" stop-color="#0047B1"/>
</linearGradient>
<clipPath id="clip0_258_2848">
<rect width="100" height="100" fill="white" transform="translate(0.5)"/>
</clipPath>
</defs>
</svg>
